<?xml version="1.0" encoding="utf-8"?>
<!-- Generator: Adobe Illustrator 22.0.1, SVG Export Plug-In . SVG Version: 6.00 Build 0)  -->
<svg version="1.1" xmlns="http://www.w3.org/2000/svg" xmlns:xlink="http://www.w3.org/1999/xlink" x="0px" y="0px"
	 viewBox="0 0 812.2 356.3" style="enable-background:new 0 0 812.2 356.3;" xml:space="none">
<style type="text/css">
	.st0{fill:url(#SVGID_1_);}
	.st1{display:none;}
	.st2{display:inline;fill:url(#SVGID_2_);}
	.st3{display:inline;fill:url(#SVGID_3_);}
	.st4{fill:url(#SVGID_4_);}
	.st5{fill:#D7DF23;}
	.st6{clip-path:url(#SVGID_6_);}
	.st7{fill:url(#SVGID_7_);}
	.st8{fill:url(#SVGID_8_);}
	.st9{fill:url(#SVGID_9_);}
	.st10{fill:url(#SVGID_10_);}
	.st11{fill:url(#SVGID_11_);}
	.st12{fill:url(#SVGID_12_);}
	.st13{fill:url(#SVGID_13_);}
	.st14{fill:url(#SVGID_14_);}
	.st15{fill:url(#SVGID_15_);}
	.st16{fill:url(#SVGID_16_);}
	.st17{fill:url(#SVGID_17_);}
	.st18{fill:url(#SVGID_18_);}
	.st19{fill:url(#SVGID_19_);}
	.st20{fill:url(#SVGID_20_);}
	.st21{fill:url(#SVGID_21_);}
	.st22{fill:url(#SVGID_22_);}
	.st23{fill:url(#SVGID_23_);}
	.st24{fill:url(#SVGID_24_);}
	.st25{fill:url(#SVGID_25_);}
	.st26{fill:url(#SVGID_26_);}
	.st27{fill:url(#SVGID_27_);}
	.st28{fill:url(#SVGID_28_);}
	.st29{fill:url(#SVGID_29_);}
	.st30{fill:url(#SVGID_30_);}
	.st31{fill:url(#SVGID_31_);}
	.st32{fill:url(#SVGID_32_);}
	.st33{fill:url(#SVGID_33_);}
	.st34{fill:url(#SVGID_34_);}
	.st35{fill:url(#SVGID_35_);}
	.st36{fill:url(#SVGID_36_);}
	.st37{fill:url(#SVGID_37_);}
	.st38{fill:url(#SVGID_38_);}
	.st39{fill:url(#SVGID_39_);}
	.st40{fill:#D2DE26;}
	.st41{fill:url(#SVGID_40_);}
	.st42{fill:url(#SVGID_41_);}
	.st43{fill:url(#SVGID_42_);}
	.st44{fill:#00A651;}
	.st45{fill:url(#SVGID_43_);}
	.st46{fill:url(#SVGID_44_);}
	.st47{fill:url(#SVGID_45_);}
	.st48{fill:url(#SVGID_46_);}
	.st49{fill:url(#SVGID_47_);}
	.st50{fill:url(#SVGID_48_);}
	.st51{fill:url(#SVGID_49_);}
	.st52{fill:url(#SVGID_50_);}
	.st53{fill:url(#SVGID_51_);}
	.st54{fill:url(#SVGID_52_);}
	.st55{fill:url(#SVGID_53_);}
	.st56{fill:url(#SVGID_54_);}
	.st57{fill:url(#SVGID_55_);}
	.st58{fill:url(#SVGID_58_);}
	.st59{fill:url(#SVGID_59_);}
	.st60{fill:url(#SVGID_60_);}
	.st61{fill:url(#SVGID_61_);}
	.st62{fill:url(#SVGID_62_);}
	.st63{fill:url(#SVGID_63_);}
	.st64{fill:#A6CE39;}
</style>
<g id="Laag_1">
	<g>
		<g>
			
				<linearGradient id="SVGID_1_" gradientUnits="userSpaceOnUse" x1="-482.3086" y1="2425.094" x2="-444.7003" y2="2425.094" gradientTransform="matrix(-0.7071 0.7071 -0.7071 -0.7071 1693.2678 2458.0508)">
				<stop  offset="0" style="stop-color:#68BD45"/>
				<stop  offset="0.9693" style="stop-color:#009444"/>
			</linearGradient>
			<path class="st0" d="M292.9,402.2c7.3-7.3,19.3-7.3,26.6,0c7.3,7.3,7.3,19.3,0,26.6c-7.3,7.3-19.3,7.3-26.6,0
				C285.6,421.5,285.6,409.6,292.9,402.2z"/>
		</g>
		<g class="st1">
			
				<linearGradient id="SVGID_2_" gradientUnits="userSpaceOnUse" x1="-481.3284" y1="2409.6509" x2="-442.7165" y2="2440.6387" gradientTransform="matrix(-0.7071 0.7071 -0.7071 -0.7071 1693.2678 2458.0508)">
				<stop  offset="0" style="stop-color:#68BD45"/>
				<stop  offset="0.9693" style="stop-color:#009444"/>
			</linearGradient>
			<path class="st2" d="M290.5,401.4c8.3-8.3,21.8-8.3,30.1,0c8.3,8.3,8.3,21.8,0,30.1c-8.3,8.3-21.8,8.3-30.1,0
				C282.2,423.2,282.2,409.7,290.5,401.4z M319,429.9c7.4-7.4,7.4-19.4,0-26.8c-7.4-7.4-19.4-7.4-26.8,0c-7.4,7.4-7.4,19.4,0,26.8
				C299.6,437.3,311.6,437.3,319,429.9z"/>
		</g>
		<g class="st1">
			
				<linearGradient id="SVGID_3_" gradientUnits="userSpaceOnUse" x1="-480.23" y1="2418.3633" x2="-434.7029" y2="2436.7744" gradientTransform="matrix(-0.7071 0.7071 -0.7071 -0.7071 1693.2678 2458.0508)">
				<stop  offset="0" style="stop-color:#68BD45"/>
				<stop  offset="0.9693" style="stop-color:#009444"/>
			</linearGradient>
			<path class="st3" d="M291.8,400.2c8.3-8.3,21.8-8.3,30.1,0c8.3,8.3,8.3,21.8,0,30.1c-8.3,8.3-21.8,8.3-30.1,0
				C283.5,422,283.5,408.5,291.8,400.2z M320.2,428.6c7.4-7.4,7.4-19.4,0-26.8c-7.4-7.4-19.4-7.4-26.8,0c-7.4,7.4-7.4,19.4,0,26.8
				C300.8,436,312.8,436,320.2,428.6z"/>
		</g>
	</g>
	<g>
		<g>
			<g>
				
					<linearGradient id="SVGID_4_" gradientUnits="userSpaceOnUse" x1="-481.6284" y1="2425.2786" x2="-443.9013" y2="2425.2786" gradientTransform="matrix(-0.7071 0.7071 -0.7071 -0.7071 1693.2678 2458.0508)">
					<stop  offset="0" style="stop-color:#68BD45"/>
					<stop  offset="0.9693" style="stop-color:#009444"/>
				</linearGradient>
				<path class="st4" d="M292.2,402.6c7.4-7.4,19.3-7.4,26.7,0c7.4,7.4,7.4,19.3,0,26.7c-7.4,7.4-19.3,7.4-26.7,0
					C284.9,421.9,284.9,409.9,292.2,402.6z"/>
			</g>
		</g>
	</g>
</g>
<g id="Layer_3">
	<g>
		<circle class="st5" cx="151.8" cy="148.2" r="21.8"/>
		<g>
			<defs>
				<path id="SVGID_5_" d="M174.1,106.2c-24.2-13.2-54.6-4.4-67.9,19.8c-13.2,24.2-4.4,54.6,19.8,67.9c24.2,13.2,54.6,4.4,67.9-19.8
					C207.1,149.9,198.2,119.5,174.1,106.2z M166.4,150.6c-2.3,4.2-7.5,5.7-11.7,3.5c-4.2-2.3-5.7-7.5-3.5-11.7
					c2.3-4.2,7.5-5.7,11.7-3.5C167.1,141.1,168.7,146.4,166.4,150.6z"/>
			</defs>
			<clipPath id="SVGID_6_">
				<use xlink:href="#SVGID_5_"  style="overflow:visible;"/>
			</clipPath>
			<g class="st6">
				<linearGradient id="SVGID_7_" gradientUnits="userSpaceOnUse" x1="125.0059" y1="193.4104" x2="175.0794" y2="106.6806">
					<stop  offset="0" style="stop-color:#00A651"/>
					<stop  offset="1" style="stop-color:#D7DF23"/>
				</linearGradient>
				<path class="st7" d="M194,174.1c-13.3,24.2-43.8,33.1-68,19.9c-24.2-13.3-33.1-43.8-19.8-68c13.3-24.2,43.8-33.1,68-19.8
					C198.3,119.4,207.2,149.9,194,174.1z"/>
				<linearGradient id="SVGID_8_" gradientUnits="userSpaceOnUse" x1="137.4548" y1="155.0107" x2="177.1442" y2="138.9752">
					<stop  offset="0" style="stop-color:#C8DA2C"/>
					<stop  offset="1" style="stop-color:#00A84F"/>
				</linearGradient>
				<path class="st8" d="M138.5,136.7c5.7-10.4,18.7-14.2,29.1-8.5c10.4,5.7,14.2,18.7,8.5,29.1c-5.7,10.4-18.7,14.2-29.1,8.5
					C136.7,160.1,132.8,147.1,138.5,136.7z M174,156.2c5-9.2,1.7-20.8-7.6-25.9c-9.2-5.1-20.8-1.7-25.9,7.6
					c-5.1,9.2-1.7,20.8,7.6,25.9C157.4,168.8,169,165.4,174,156.2z"/>
				<linearGradient id="SVGID_9_" gradientUnits="userSpaceOnUse" x1="141.5151" y1="158.9071" x2="174.8001" y2="131.9535">
					<stop  offset="0" style="stop-color:#AED136"/>
					<stop  offset="0.8896" style="stop-color:#00A651"/>
				</linearGradient>
				<path class="st9" d="M139.4,135.1c5.7-10.4,18.7-14.2,29.1-8.5c10.4,5.7,14.2,18.7,8.5,29.1c-5.7,10.4-18.7,14.2-29.1,8.5
					C137.5,158.5,133.7,145.5,139.4,135.1z M174.9,154.6c5-9.2,1.7-20.8-7.6-25.9c-9.2-5-20.8-1.7-25.9,7.6
					c-5.1,9.2-1.7,20.8,7.6,25.9C158.2,167.2,169.8,163.8,174.9,154.6z"/>
				<path class="st5" d="M140.1,137.4c5.2-9.5,17.3-13.1,26.8-7.8c9.5,5.2,13.1,17.3,7.8,26.8c-5.2,9.5-17.3,13.1-26.8,7.8
					C138.4,159,134.9,147,140.1,137.4z M172.9,155.4c4.7-8.5,1.5-19.2-7-23.9c-8.5-4.7-19.2-1.5-23.9,7c-4.7,8.5-1.5,19.2,7,23.9
					C157.5,167,168.2,163.9,172.9,155.4z"/>
				<linearGradient id="SVGID_10_" gradientUnits="userSpaceOnUse" x1="137.8213" y1="155.2104" x2="174.1995" y2="139.7688">
					<stop  offset="0" style="stop-color:#C8DA2C"/>
					<stop  offset="1" style="stop-color:#00A84F"/>
				</linearGradient>
				<path class="st10" d="M138.7,138c5.2-9.6,17.3-13.1,26.8-7.8c9.6,5.2,13.1,17.3,7.8,26.8c-5.2,9.6-17.3,13.1-26.8,7.8
					C137,159.6,133.4,147.5,138.7,138z M171.4,155.9c4.7-8.5,1.5-19.2-7-23.9c-8.5-4.7-19.2-1.5-23.9,7c-4.7,8.5-1.5,19.2,7,23.9
					C156.1,167.6,166.8,164.5,171.4,155.9z"/>
				<linearGradient id="SVGID_11_" gradientUnits="userSpaceOnUse" x1="141.6554" y1="158.7554" x2="171.9458" y2="133.3386">
					<stop  offset="0" style="stop-color:#ADD136"/>
					<stop  offset="0.9202" style="stop-color:#00A651"/>
				</linearGradient>
				<path class="st11" d="M139.5,136.5c5.2-9.6,17.3-13.1,26.8-7.8c9.6,5.2,13.1,17.3,7.8,26.8c-5.2,9.6-17.3,13.1-26.8,7.8
					C137.7,158.1,134.2,146.1,139.5,136.5z M172.2,154.5c4.7-8.5,1.5-19.2-7-23.9c-8.5-4.7-19.2-1.5-23.9,7
					c-4.7,8.5-1.5,19.2,7,23.9C156.9,166.1,167.6,163,172.2,154.5z"/>
				<linearGradient id="SVGID_12_" gradientUnits="userSpaceOnUse" x1="148.4851" y1="162.4293" x2="166.8405" y2="129.3151">
					<stop  offset="0" style="stop-color:#D7DF23"/>
					<stop  offset="1" style="stop-color:#00A651"/>
				</linearGradient>
				<path class="st12" d="M141.1,136.8c5-9.2,16.6-12.5,25.7-7.5c9.2,5,12.5,16.5,7.5,25.7c-5,9.2-16.5,12.5-25.7,7.5
					C139.4,157.5,136,145.9,141.1,136.8z M172.4,154c4.5-8.2,1.5-18.4-6.7-22.9c-8.1-4.5-18.4-1.5-22.9,6.7
					c-4.5,8.2-1.5,18.4,6.7,22.9C157.7,165.1,168,162.1,172.4,154z"/>
				<linearGradient id="SVGID_13_" gradientUnits="userSpaceOnUse" x1="146.8988" y1="162.694" x2="164.5836" y2="130.7897">
					<stop  offset="0" style="stop-color:#00A651"/>
					<stop  offset="1" style="stop-color:#D7DF23"/>
				</linearGradient>
				<path class="st13" d="M171.7,155.5c-4.8,8.8-15.9,12.1-24.8,7.2c-8.8-4.8-12.1-15.9-7.2-24.8c4.8-8.8,15.9-12.1,24.8-7.2
					C173.3,135.6,176.6,146.7,171.7,155.5z M141.5,138.9c-4.3,7.9-1.4,17.7,6.4,22c7.9,4.3,17.7,1.4,22-6.4c4.3-7.9,1.4-17.7-6.4-22
					C155.7,128.2,145.8,131.1,141.5,138.9z"/>
				<linearGradient id="SVGID_14_" gradientUnits="userSpaceOnUse" x1="147.9359" y1="163.0462" x2="166.3495" y2="129.827">
					<stop  offset="0" style="stop-color:#D7DF23"/>
					<stop  offset="1" style="stop-color:#00A651"/>
				</linearGradient>
				<path class="st14" d="M140.5,137.3c5-9.2,16.6-12.6,25.8-7.5c9.2,5,12.6,16.6,7.5,25.8c-5,9.2-16.6,12.6-25.8,7.5
					C138.8,158.1,135.5,146.5,140.5,137.3z M172,154.6c4.5-8.2,1.5-18.5-6.7-23c-8.2-4.5-18.5-1.5-23,6.7c-4.5,8.2-1.5,18.5,6.7,23
					C157.2,165.7,167.5,162.7,172,154.6z"/>
				<linearGradient id="SVGID_15_" gradientUnits="userSpaceOnUse" x1="140.0579" y1="153.647" x2="173.1533" y2="139.5988">
					<stop  offset="0" style="stop-color:#C8DA2C"/>
					<stop  offset="1" style="stop-color:#00A84F"/>
				</linearGradient>
				<path class="st15" d="M140.8,138c4.8-8.7,15.7-11.9,24.4-7.1c8.7,4.8,11.9,15.7,7.1,24.4c-4.8,8.7-15.7,11.9-24.4,7.1
					C139.3,157.6,136.1,146.7,140.8,138z M170.6,154.3c4.2-7.7,1.4-17.5-6.3-21.7c-7.7-4.2-17.5-1.4-21.7,6.4
					c-4.2,7.7-1.4,17.5,6.3,21.7C156.7,164.9,166.4,162.1,170.6,154.3z"/>
				<linearGradient id="SVGID_16_" gradientUnits="userSpaceOnUse" x1="147.8781" y1="161.7413" x2="164.414" y2="131.9097">
					<stop  offset="0" style="stop-color:#D7DF23"/>
					<stop  offset="1" style="stop-color:#00A651"/>
				</linearGradient>
				<path class="st16" d="M141,138.1c4.6-8.4,15.3-10.6,23.7-6c8.5,4.6,11.5,14.3,6.9,22.8c-4.6,8.4-15.3,11.6-23.7,6.9
					C139.5,157.2,136.4,146.5,141,138.1z M170,153.9c4.1-7.5,1.4-17-6.2-21.1c-7.5-4.1-17-1.4-21.1,6.2c-4.1,7.5-1.4,17,6.2,21.1
					C156.4,164.2,165.9,161.5,170,153.9z"/>
				<path class="st5" d="M140.2,138.7c4.8-8.8,15.9-12.1,24.7-7.2c8.8,4.8,12.1,15.9,7.2,24.7c-4.8,8.8-15.9,12.1-24.8,7.2
					C138.6,158.6,135.3,147.5,140.2,138.7z M170.4,155.2c4.3-7.9,1.4-17.7-6.4-22c-7.8-4.3-17.7-1.4-22,6.4
					c-4.3,7.8-1.4,17.7,6.4,22C156.2,166,166.1,163.1,170.4,155.2z"/>
				<path class="st5" d="M135.7,136.3c6.3-11.4,20.7-15.6,32.1-9.4c11.4,6.3,15.6,20.7,9.4,32.1c-6.3,11.4-20.7,15.6-32.1,9.4
					C133.6,162.1,129.4,147.7,135.7,136.3z M174.9,157.8c5.6-10.2,1.8-23-8.3-28.6c-10.2-5.6-23-1.8-28.6,8.3
					c-5.6,10.2-1.8,23,8.3,28.6C156.5,171.7,169.3,168,174.9,157.8z"/>
				<linearGradient id="SVGID_17_" gradientUnits="userSpaceOnUse" x1="140.2974" y1="172.77" x2="168.9122" y2="121.1476">
					<stop  offset="0" style="stop-color:#D7DF23"/>
					<stop  offset="1" style="stop-color:#00A651"/>
				</linearGradient>
				<path class="st17" d="M128.7,132.8c7.8-14.3,25.8-19.5,40.1-11.7c14.3,7.8,19.5,25.8,11.7,40.1c-7.8,14.3-25.8,19.5-40.1,11.7
					C126.2,165,120.9,147,128.7,132.8z M177.6,159.6c7-12.7,2.3-28.7-10.4-35.7c-12.7-7-28.7-2.3-35.7,10.4
					c-7,12.7-2.3,28.7,10.4,35.7C154.7,177,170.7,172.3,177.6,159.6z"/>
				<linearGradient id="SVGID_18_" gradientUnits="userSpaceOnUse" x1="129.7272" y1="158.3699" x2="181.1533" y2="136.5409">
					<stop  offset="0" style="stop-color:#C8DA2C"/>
					<stop  offset="1" style="stop-color:#00A850"/>
				</linearGradient>
				<path class="st18" d="M130.9,134c7.4-13.5,24.4-18.5,37.9-11.1c13.5,7.4,18.5,24.4,11.1,37.9c-7.4,13.5-24.4,18.5-37.9,11.1
					C128.5,164.6,123.5,147.5,130.9,134z M177.3,159.4c6.6-12,2.2-27.2-9.9-33.8c-12-6.6-27.2-2.2-33.8,9.9
					c-6.6,12-2.2,27.2,9.9,33.8C155.5,175.9,170.7,171.4,177.3,159.4z"/>
				<linearGradient id="SVGID_19_" gradientUnits="userSpaceOnUse" x1="147.3506" y1="171.2778" x2="162.6778" y2="126.7643">
					<stop  offset="0" style="stop-color:#D7DF23"/>
					<stop  offset="1" style="stop-color:#00A651"/>
				</linearGradient>
				<path class="st19" d="M132.7,141.5c4.1-12.3,17.5-19,29.8-14.8c12.3,4.1,19,17.5,14.8,29.8c-4.1,12.3-17.5,19-29.8,14.8
					C135.2,167.2,128.6,153.8,132.7,141.5z M174.9,155.7c3.7-11-2.3-22.9-13.2-26.5c-11-3.7-22.9,2.2-26.5,13.2
					c-3.7,11,2.2,22.9,13.2,26.5C159.3,172.6,171.2,166.6,174.9,155.7z"/>
				<linearGradient id="SVGID_20_" gradientUnits="userSpaceOnUse" x1="132.6331" y1="157.7442" x2="179.8307" y2="137.71">
					<stop  offset="0" style="stop-color:#C8DA2C"/>
					<stop  offset="1" style="stop-color:#00A850"/>
				</linearGradient>
				<path class="st20" d="M133.7,135.4c6.8-12.4,22.4-17,34.8-10.2c12.4,6.8,17,22.4,10.2,34.8c-6.8,12.4-22.4,17-34.8,10.2
					C131.5,163.4,126.9,147.8,133.7,135.4z M176.3,158.7c6.1-11,2-25-9.1-31c-11-6.1-25-2-31,9c-6,11-2,25,9.1,31
					C156.3,173.8,170.2,169.7,176.3,158.7z"/>
				<linearGradient id="SVGID_21_" gradientUnits="userSpaceOnUse" x1="135.1747" y1="155.8779" x2="178.1073" y2="137.6541">
					<stop  offset="0" style="stop-color:#C8DA2C"/>
					<stop  offset="1" style="stop-color:#00A84F"/>
				</linearGradient>
				<path class="st21" d="M136.2,135.6c6.2-11.3,20.4-15.4,31.7-9.3c11.3,6.2,15.4,20.4,9.2,31.7c-6.2,11.3-20.4,15.4-31.7,9.2
					C134.2,161,130,146.8,136.2,135.6z M174.9,156.7c5.5-10,1.8-22.7-8.2-28.2c-10-5.5-22.7-1.8-28.2,8.2c-5.5,10-1.8,22.7,8.2,28.2
					C156.7,170.5,169.4,166.8,174.9,156.7z"/>
				<linearGradient id="SVGID_22_" gradientUnits="userSpaceOnUse" x1="144.0434" y1="167.6149" x2="166.9864" y2="126.2245">
					<stop  offset="0" style="stop-color:#D7DF23"/>
					<stop  offset="1" style="stop-color:#00A651"/>
				</linearGradient>
				<path class="st22" d="M176.3,158.3c-6.3,11.4-20.7,15.6-32.1,9.4c-11.4-6.3-15.7-20.7-9.4-32.1c6.3-11.4,20.7-15.6,32.1-9.4
					C178.3,132.4,182.5,146.8,176.3,158.3z M137,136.8c-5.6,10.2-1.8,23,8.4,28.6c10.2,5.6,23,1.8,28.6-8.4
					c5.6-10.2,1.8-23-8.4-28.6C155.5,122.9,142.6,126.6,137,136.8z"/>
				<linearGradient id="SVGID_23_" gradientUnits="userSpaceOnUse" x1="143.7701" y1="166.5293" x2="164.951" y2="128.3181">
					<stop  offset="0" style="stop-color:#00A651"/>
					<stop  offset="1" style="stop-color:#D7DF23"/>
				</linearGradient>
				<path class="st23" d="M173.5,157.9c-5.8,10.6-19.1,14.4-29.6,8.7c-10.6-5.8-14.5-19.1-8.7-29.7c5.8-10.6,19.1-14.5,29.7-8.7
					C175.4,134.1,179.3,147.4,173.5,157.9z M137.3,138.1c-5.2,9.4-1.7,21.2,7.7,26.4c9.4,5.2,21.3,1.7,26.4-7.7
					c5.2-9.4,1.7-21.3-7.7-26.4C154.3,125.2,142.5,128.7,137.3,138.1z"/>
				<linearGradient id="SVGID_24_" gradientUnits="userSpaceOnUse" x1="128.5466" y1="148.3954" x2="181.7005" y2="146.5392">
					<stop  offset="0" style="stop-color:#AFD136"/>
					<stop  offset="1" style="stop-color:#00A651"/>
				</linearGradient>
				<path class="st24" d="M131.8,134.7c7.1-12.9,23.3-17.6,36.1-10.5c12.9,7,17.6,23.2,10.6,36.1c-7.1,12.9-23.3,17.6-36.1,10.5
					C129.5,163.7,124.7,147.6,131.8,134.7z M175.9,158.8c6.3-11.5,2.1-25.9-9.4-32.2c-11.5-6.3-25.9-2.1-32.1,9.4
					c-6.3,11.5-2.1,25.9,9.4,32.2C155.2,174.5,169.6,170.3,175.9,158.8z"/>
				<linearGradient id="SVGID_25_" gradientUnits="userSpaceOnUse" x1="136.9063" y1="160.5361" x2="172.3244" y2="131.8551">
					<stop  offset="7.975460e-02" style="stop-color:#00A651"/>
					<stop  offset="1" style="stop-color:#AED136"/>
				</linearGradient>
				<path class="st25" d="M174.6,157.1c-6,11-19.9,15.1-30.9,9c-11-6-15.1-19.9-9-30.9c6-11,19.9-15.1,30.9-9
					C176.6,132.2,180.6,146.1,174.6,157.1z M136.8,136.4c-5.4,9.8-1.8,22.2,8.1,27.5c9.8,5.4,22.2,1.8,27.5-8
					c5.4-9.8,1.8-22.2-8-27.5C154.6,123,142.2,126.6,136.8,136.4z"/>
				<linearGradient id="SVGID_26_" gradientUnits="userSpaceOnUse" x1="178.569" y1="147.5523" x2="134.1861" y2="146.0025">
					<stop  offset="0.1472" style="stop-color:#00A651"/>
					<stop  offset="1" style="stop-color:#D7DF23"/>
				</linearGradient>
				<path class="st26" d="M136.9,136.1c5.9-10.7,19.4-14.7,30.1-8.8c10.7,5.9,14.7,19.4,8.8,30.1c-5.9,10.7-19.4,14.7-30.2,8.8
					C135,160.4,131,146.8,136.9,136.1z M173.7,156.3c5.2-9.6,1.7-21.6-7.8-26.8c-9.6-5.2-21.6-1.7-26.8,7.8
					c-5.2,9.6-1.7,21.6,7.8,26.8C156.4,169.4,168.5,165.8,173.7,156.3z"/>
				<linearGradient id="SVGID_27_" gradientUnits="userSpaceOnUse" x1="145.3636" y1="167.1426" x2="166.7199" y2="126.9772">
					<stop  offset="0" style="stop-color:#D7DF23"/>
					<stop  offset="1" style="stop-color:#00A651"/>
				</linearGradient>
				<path class="st27" d="M136.1,136.1c6-11,19.9-15,30.9-9c11,6,15,19.9,9,30.9c-6,11-19.9,15-30.9,9
					C134.1,161,130.1,147.1,136.1,136.1z M173.8,156.8c5.4-9.8,1.8-22.1-8-27.5c-9.8-5.4-22.1-1.8-27.5,8c-5.4,9.8-1.8,22.1,8,27.5
					C156.1,170.2,168.4,166.6,173.8,156.8z"/>
				<linearGradient id="SVGID_28_" gradientUnits="userSpaceOnUse" x1="135.5792" y1="155.6945" x2="175.2168" y2="138.8693">
					<stop  offset="0" style="stop-color:#C8DA2C"/>
					<stop  offset="1" style="stop-color:#00A84F"/>
				</linearGradient>
				<path class="st28" d="M136.5,136.9c5.7-10.4,18.8-14.2,29.2-8.5c10.4,5.7,14.2,18.8,8.5,29.2c-5.7,10.4-18.8,14.2-29.2,8.5
					C134.6,160.5,130.8,147.3,136.5,136.9z M172.2,156.5c5.1-9.3,1.7-21-7.6-26c-9.3-5.1-21-1.7-26,7.6c-5.1,9.3-1.7,21,7.6,26
					C155.5,169.2,167.1,165.8,172.2,156.5z"/>
				<linearGradient id="SVGID_29_" gradientUnits="userSpaceOnUse" x1="147.3344" y1="163.4552" x2="166.5686" y2="128.7557">
					<stop  offset="0" style="stop-color:#D7DF23"/>
					<stop  offset="0.908" style="stop-color:#00A651"/>
				</linearGradient>
				<path class="st29" d="M139.6,136.6c5.3-9.6,17.3-13.1,26.9-7.9c9.6,5.3,13.1,17.3,7.9,26.9c-5.3,9.6-17.3,13.1-26.9,7.9
					C137.8,158.2,134.3,146.2,139.6,136.6z M172.4,154.6c4.7-8.5,1.5-19.3-7-24c-8.5-4.7-19.3-1.5-24,7c-4.7,8.5-1.5,19.3,7,24
					C157,166.3,167.8,163.1,172.4,154.6z"/>
				<path class="st5" d="M140.2,138.7c4.8-8.8,15.9-12.1,24.7-7.2c8.8,4.8,12.1,15.9,7.2,24.7c-4.8,8.8-15.9,12.1-24.8,7.2
					C138.6,158.6,135.3,147.5,140.2,138.7z M170.4,155.2c4.3-7.9,1.4-17.7-6.4-22c-7.8-4.3-17.7-1.4-22,6.4
					c-4.3,7.8-1.4,17.7,6.4,22C156.2,166,166.1,163.1,170.4,155.2z"/>
				<linearGradient id="SVGID_30_" gradientUnits="userSpaceOnUse" x1="134.6715" y1="148.0053" x2="175.6424" y2="146.5745">
					<stop  offset="0" style="stop-color:#AED136"/>
					<stop  offset="0.8466" style="stop-color:#00A651"/>
				</linearGradient>
				<path class="st30" d="M137.2,137.4c5.4-9.9,17.9-13.6,27.8-8.1c9.9,5.4,13.6,17.9,8.1,27.8c-5.4,9.9-17.9,13.6-27.8,8.1
					C135.4,159.8,131.7,147.3,137.2,137.4z M171.2,156.1c4.8-8.8,1.6-19.9-7.2-24.8c-8.8-4.8-19.9-1.6-24.8,7.2
					c-4.8,8.8-1.6,19.9,7.2,24.8C155.2,168.1,166.3,164.9,171.2,156.1z"/>
				<linearGradient id="SVGID_31_" gradientUnits="userSpaceOnUse" x1="170.9237" y1="156.9985" x2="144.3992" y2="135.5194">
					<stop  offset="0" style="stop-color:#D7DF23"/>
					<stop  offset="1" style="stop-color:#00A651"/>
				</linearGradient>
				<path class="st31" d="M157.2,163.3c-9.4-0.3-16.8-8.1-16.6-17.6c0.3-9.4,8.1-16.8,17.6-16.6c9.4,0.3,16.8,8.1,16.6,17.6
					C174.5,156.2,166.6,163.6,157.2,163.3z M158.1,131.1c-8.4-0.2-15.4,6.4-15.6,14.8c-0.2,8.4,6.4,15.4,14.8,15.6
					c8.4,0.2,15.4-6.4,15.6-14.8C173.1,138.3,166.5,131.3,158.1,131.1z"/>
				<linearGradient id="SVGID_32_" gradientUnits="userSpaceOnUse" x1="174.7509" y1="147.9732" x2="140.7405" y2="146.7855">
					<stop  offset="0" style="stop-color:#00A651"/>
					<stop  offset="1" style="stop-color:#D7DF23"/>
				</linearGradient>
				<path class="st32" d="M158.2,130.4c9.4,0.3,16.8,8.1,16.5,17.5c-0.3,9.4-8.1,16.8-17.5,16.5c-9.4-0.3-16.8-8.1-16.5-17.5
					C141,137.5,148.9,130.1,158.2,130.4z M157.3,162.5c8.4,0.2,15.3-6.4,15.6-14.7c0.2-8.4-6.4-15.3-14.7-15.6
					c-8.4-0.2-15.3,6.4-15.6,14.7C142.4,155.3,149,162.3,157.3,162.5z"/>
				<linearGradient id="SVGID_33_" gradientUnits="userSpaceOnUse" x1="169.7189" y1="157.375" x2="145.0417" y2="136.6683">
					<stop  offset="0" style="stop-color:#00A84F"/>
					<stop  offset="1" style="stop-color:#C8DA2C"/>
				</linearGradient>
				<path class="st33" d="M157.8,130.9c8.9,0.3,15.9,7.7,15.6,16.6c-0.3,8.9-7.7,15.9-16.6,15.6c-8.9-0.3-15.9-7.7-15.6-16.6
					C141.5,137.7,149,130.7,157.8,130.9z M157,161.4c7.9,0.2,14.5-6,14.8-13.9c0.2-7.9-6-14.5-13.9-14.8c-7.9-0.2-14.5,6-14.8,13.9
					C142.8,154.5,149.1,161.1,157,161.4z"/>
				<linearGradient id="SVGID_34_" gradientUnits="userSpaceOnUse" x1="172.1937" y1="153.5515" x2="145.1705" y2="141.5199">
					<stop  offset="7.361960e-02" style="stop-color:#00A651"/>
					<stop  offset="1" style="stop-color:#ADD136"/>
				</linearGradient>
				<path class="st34" d="M159.1,132.8c8.2,0.2,14.6,7.1,14.4,15.2c-0.2,8.2-7.1,14.6-15.2,14.4c-8.2-0.2-14.6-7.1-14.4-15.2
					C144.1,139,151,132.5,159.1,132.8z M158.3,160.7c7.3,0.2,13.3-5.5,13.5-12.8c0.2-7.3-5.5-13.3-12.8-13.5
					c-7.3-0.2-13.3,5.5-13.5,12.8C145.3,154.4,151,160.5,158.3,160.7z"/>
				<linearGradient id="SVGID_35_" gradientUnits="userSpaceOnUse" x1="172.7628" y1="147.1974" x2="144.371" y2="146.2059">
					<stop  offset="0" style="stop-color:#00A651"/>
					<stop  offset="1" style="stop-color:#D7DF23"/>
				</linearGradient>
				<path class="st35" d="M159,132.5c7.8,0.2,14,6.8,13.8,14.6c-0.2,7.8-6.8,14-14.6,13.8c-7.8-0.2-14-6.8-13.8-14.6
					C144.6,138.5,151.1,132.3,159,132.5z M158.2,159.3c7,0.2,12.8-5.3,13-12.3c0.2-7-5.3-12.8-12.3-13c-7-0.2-12.8,5.3-13,12.3
					C145.7,153.3,151.2,159.1,158.2,159.3z"/>
				<path class="st5" d="M143.9,139.4c4-7.4,13.3-10.1,20.7-6c7.4,4,10.1,13.3,6,20.7c-4,7.4-13.3,10.1-20.7,6
					C142.6,156.1,139.8,146.8,143.9,139.4z M169.1,153.3c3.6-6.5,1.2-14.8-5.4-18.4c-6.5-3.6-14.8-1.2-18.4,5.4
					c-3.6,6.6-1.2,14.8,5.4,18.4C157.3,162.2,165.5,159.8,169.1,153.3z"/>
				<linearGradient id="SVGID_36_" gradientUnits="userSpaceOnUse" x1="171.5233" y1="146.3465" x2="144.2534" y2="145.3942">
					<stop  offset="0" style="stop-color:#D7DF23"/>
					<stop  offset="1" style="stop-color:#00A651"/>
				</linearGradient>
				<path class="st36" d="M157.5,159.5c-7.5-0.2-13.5-6.5-13.2-14c0.2-7.5,6.5-13.5,14-13.2c7.5,0.2,13.5,6.5,13.3,14
					C171.3,153.8,165,159.7,157.5,159.5z M158.2,133.7c-6.7-0.2-12.3,5.1-12.5,11.8c-0.2,6.7,5.1,12.3,11.8,12.5
					c6.7,0.2,12.3-5.1,12.5-11.8C170.2,139.5,164.9,133.9,158.2,133.7z"/>
				<linearGradient id="SVGID_37_" gradientUnits="userSpaceOnUse" x1="166.3112" y1="151.4097" x2="151.073" y2="142.963">
					<stop  offset="0" style="stop-color:#00A651"/>
					<stop  offset="1" style="stop-color:#D7DF23"/>
				</linearGradient>
				<path class="st37" d="M162.9,139.5c4.2,2.3,5.8,7.6,3.5,11.8c-2.3,4.2-7.6,5.8-11.8,3.5c-4.2-2.3-5.8-7.6-3.5-11.8
					C153.3,138.8,158.6,137.2,162.9,139.5z M157.1,152.3c3,1.7,6.9,0.5,8.5-2.5c1.7-3,0.5-6.9-2.5-8.5c-3-1.7-6.9-0.5-8.5,2.5
					C153,146.8,154.1,150.6,157.1,152.3z"/>
				<linearGradient id="SVGID_38_" gradientUnits="userSpaceOnUse" x1="162.4871" y1="156.1487" x2="154.0533" y2="136.2799">
					<stop  offset="0" style="stop-color:#00A84F"/>
					<stop  offset="1" style="stop-color:#C8DA2C"/>
				</linearGradient>
				<path class="st38" d="M163.4,136.7c5.2,2.9,7.2,9.4,4.3,14.6c-2.8,5.2-9.4,7.2-14.6,4.3c-5.2-2.8-7.2-9.4-4.3-14.6
					C151.6,135.8,158.2,133.9,163.4,136.7z M153.7,154.7c4.7,2.5,10.5,0.8,13-3.9c2.5-4.7,0.8-10.5-3.9-13c-4.7-2.5-10.5-0.8-13,3.9
					C147.3,146.3,149,152.1,153.7,154.7z"/>
				<linearGradient id="SVGID_39_" gradientUnits="userSpaceOnUse" x1="162.0358" y1="155.6398" x2="154.2937" y2="137.4008">
					<stop  offset="0" style="stop-color:#00A84F"/>
					<stop  offset="1" style="stop-color:#C8DA2C"/>
				</linearGradient>
				<path class="st39" d="M162.9,137.8c4.8,2.6,6.6,8.6,4,13.4c-2.6,4.8-8.6,6.6-13.4,4c-4.8-2.6-6.6-8.6-4-13.4
					C152.1,137,158.1,135.2,162.9,137.8z M153.9,154.3c4.3,2.3,9.6,0.7,12-3.5c2.3-4.3,0.7-9.6-3.5-12c-4.3-2.3-9.6-0.7-12,3.5
					C148.1,146.6,149.7,151.9,153.9,154.3z"/>
				<path class="st40" d="M163.6,138.2c4.8,2.6,6.6,8.6,4,13.4c-2.6,4.8-8.6,6.6-13.4,4c-4.8-2.6-6.6-8.6-4-13.4
					C152.8,137.4,158.8,135.6,163.6,138.2z M154.9,154.8c4.2,2.3,9.4,0.7,11.7-3.4c2.3-4.2,0.7-9.4-3.4-11.7
					c-4.2-2.3-9.4-0.7-11.7,3.4C149.2,147.3,150.7,152.5,154.9,154.8z"/>
				<linearGradient id="SVGID_40_" gradientUnits="userSpaceOnUse" x1="157.9042" y1="156.3654" x2="158.6216" y2="135.8231">
					<stop  offset="0" style="stop-color:#00A651"/>
					<stop  offset="1" style="stop-color:#AED136"/>
				</linearGradient>
				<path class="st41" d="M163.2,137.1c5,2.7,6.8,9,4.1,13.9c-2.7,5-9,6.8-13.9,4.1c-5-2.7-6.8-9-4.1-13.9
					C151.9,136.2,158.2,134.4,163.2,137.1z M153.9,154.1c4.4,2.4,10,0.8,12.4-3.7c2.4-4.4,0.8-10-3.7-12.4c-4.4-2.4-10-0.8-12.4,3.7
					C147.8,146.2,149.5,151.7,153.9,154.1z"/>
				<linearGradient id="SVGID_41_" gradientUnits="userSpaceOnUse" x1="168.7745" y1="157.0048" x2="146.1245" y2="137.9992">
					<stop  offset="0" style="stop-color:#00A84F"/>
					<stop  offset="1" style="stop-color:#C8DA2C"/>
				</linearGradient>
				<path class="st42" d="M157.9,132.7c8.2,0.2,14.6,7.1,14.4,15.2c-0.2,8.2-7.1,14.6-15.2,14.4c-8.2-0.2-14.6-7.1-14.4-15.2
					C142.9,138.9,149.7,132.5,157.9,132.7z M157.1,160.7c7.3,0.2,13.3-5.5,13.5-12.8c0.2-7.3-5.5-13.3-12.8-13.5
					c-7.3-0.2-13.3,5.5-13.5,12.8C144.1,154.4,149.8,160.5,157.1,160.7z"/>
				<path class="st5" d="M157.9,133.9c7.5,0.2,13.5,6.5,13.2,14c-0.2,7.5-6.5,13.5-14,13.2c-7.5-0.2-13.5-6.5-13.2-14
					C144.1,139.7,150.4,133.7,157.9,133.9z M157.2,159.7c6.7,0.2,12.3-5.1,12.5-11.8c0.2-6.7-5.1-12.3-11.8-12.5
					c-6.7-0.2-12.3,5.1-12.5,11.8C145.2,153.9,150.5,159.5,157.2,159.7z"/>
				<linearGradient id="SVGID_42_" gradientUnits="userSpaceOnUse" x1="163.7735" y1="160.7668" x2="150.8106" y2="132.9677">
					<stop  offset="0.1902" style="stop-color:#00A651"/>
					<stop  offset="1" style="stop-color:#AED136"/>
				</linearGradient>
				<path class="st43" d="M157.7,131.5c8.5,0.2,15.1,7.3,14.9,15.8c-0.2,8.5-7.3,15.1-15.8,14.9c-8.5-0.2-15.1-7.3-14.9-15.8
					C142.2,138,149.3,131.3,157.7,131.5z M156.9,160.5c7.5,0.2,13.8-5.7,14-13.3c0.2-7.5-5.7-13.8-13.3-14
					c-7.5-0.2-13.8,5.7-14,13.3C143.4,154,149.4,160.3,156.9,160.5z"/>
				<path class="st44" d="M151,157.7c-6.3-3.5-8.7-11.4-5.3-17.8c3.5-6.4,11.4-8.7,17.8-5.3c6.3,3.5,8.7,11.4,5.3,17.8
					C165.4,158.8,157.4,161.2,151,157.7z M162.9,135.9c-5.7-3.1-12.8-1-15.8,4.7c-3.1,5.7-1,12.8,4.7,15.8c5.7,3.1,12.8,1,15.8-4.7
					C170.6,146.1,168.5,139,162.9,135.9z"/>
				<linearGradient id="SVGID_43_" gradientUnits="userSpaceOnUse" x1="166.8332" y1="156.8021" x2="149.243" y2="135.8388">
					<stop  offset="0" style="stop-color:#AED136"/>
					<stop  offset="1" style="stop-color:#00A651"/>
				</linearGradient>
				<path class="st45" d="M151.5,158.3c-6.6-3.6-9.1-11.9-5.5-18.6c3.6-6.6,11.9-9.1,18.6-5.5c6.6,3.6,9.1,11.9,5.5,18.6
					C166.5,159.5,158.1,161.9,151.5,158.3z M163.9,135.6c-5.9-3.2-13.3-1-16.5,4.9c-3.2,5.9-1,13.3,4.9,16.5
					c5.9,3.2,13.3,1,16.5-4.9C172,146.2,169.8,138.8,163.9,135.6z"/>
				<linearGradient id="SVGID_44_" gradientUnits="userSpaceOnUse" x1="169.4689" y1="153.8039" x2="145.579" y2="140.5616">
					<stop  offset="0" style="stop-color:#00A651"/>
					<stop  offset="1" style="stop-color:#D7DF23"/>
				</linearGradient>
				<path class="st46" d="M164.1,135.2c6.6,3.6,9.1,11.9,5.5,18.5c-3.6,6.6-11.9,9.1-18.5,5.5c-6.6-3.6-9.1-11.9-5.5-18.5
					C149.1,134,157.4,131.6,164.1,135.2z M151.7,157.9c5.9,3.2,13.3,1,16.5-4.9c3.2-5.9,1-13.3-4.9-16.5c-5.9-3.2-13.3-1-16.5,4.9
					C143.6,147.3,145.8,154.7,151.7,157.9z"/>
				<linearGradient id="SVGID_45_" gradientUnits="userSpaceOnUse" x1="167.0633" y1="152.4516" x2="148.71" y2="142.2781">
					<stop  offset="0" style="stop-color:#00A651"/>
					<stop  offset="1" style="stop-color:#D7DF23"/>
				</linearGradient>
				<path class="st47" d="M162.9,138.1c5.1,2.8,7,9.1,4.2,14.2c-2.8,5.1-9.2,7-14.2,4.2c-5.1-2.8-7-9.2-4.2-14.2
					C151.4,137.3,157.8,135.4,162.9,138.1z M153.4,155.6c4.5,2.5,10.2,0.8,12.7-3.7c2.5-4.5,0.8-10.2-3.7-12.7
					c-4.5-2.5-10.2-0.8-12.7,3.7C147.2,147.4,148.9,153.1,153.4,155.6z"/>
				<linearGradient id="SVGID_46_" gradientUnits="userSpaceOnUse" x1="162.442" y1="158.6952" x2="152.3382" y2="134.8921">
					<stop  offset="0" style="stop-color:#00A84F"/>
					<stop  offset="1" style="stop-color:#C8DA2C"/>
				</linearGradient>
				<path class="st48" d="M163.6,135.4c6.3,3.4,8.6,11.3,5.2,17.5c-3.4,6.3-11.3,8.6-17.5,5.2c-6.3-3.4-8.6-11.3-5.2-17.5
					C149.4,134.3,157.3,132,163.6,135.4z M151.9,156.9c5.6,3,12.6,1,15.6-4.6c3-5.6,1-12.6-4.6-15.6c-5.6-3-12.6-1-15.6,4.6
					C144.2,146.9,146.3,153.9,151.9,156.9z"/>
				<linearGradient id="SVGID_47_" gradientUnits="userSpaceOnUse" x1="161.9029" y1="158.0835" x2="152.6316" y2="136.2419">
					<stop  offset="0" style="stop-color:#00A84F"/>
					<stop  offset="1" style="stop-color:#C8DA2C"/>
				</linearGradient>
				<path class="st49" d="M162.9,136.7c5.8,3.1,7.9,10.3,4.8,16.1c-3.1,5.8-10.3,7.9-16.1,4.8c-5.8-3.1-7.9-10.3-4.8-16.1
					C150,135.7,157.2,133.6,162.9,136.7z M152.2,156.4c5.1,2.8,11.5,0.9,14.3-4.2c2.8-5.1,0.9-11.6-4.2-14.3
					c-5.1-2.8-11.6-0.9-14.3,4.2C145.2,147.2,147.1,153.7,152.2,156.4z"/>
				<linearGradient id="SVGID_48_" gradientUnits="userSpaceOnUse" x1="165.7659" y1="156.7287" x2="150.5037" y2="138.5399">
					<stop  offset="0" style="stop-color:#00A651"/>
					<stop  offset="1" style="stop-color:#ADD136"/>
				</linearGradient>
				<path class="st50" d="M163.8,137.2c5.8,3.1,7.9,10.4,4.8,16.1c-3.1,5.7-10.4,7.9-16.1,4.8c-5.7-3.1-7.9-10.3-4.8-16.1
					C150.8,136.2,158.1,134.1,163.8,137.2z M153.1,156.9c5.1,2.8,11.6,0.9,14.3-4.2c2.8-5.1,0.9-11.5-4.2-14.3
					c-5.1-2.8-11.6-0.9-14.3,4.2C146.1,147.7,148,154.1,153.1,156.9z"/>
				<path class="st5" d="M162.5,137.6c5.3,2.9,7.3,9.5,4.4,14.8c-2.9,5.3-9.5,7.3-14.8,4.4c-5.3-2.9-7.3-9.5-4.4-14.8
					C150.6,136.7,157.2,134.7,162.5,137.6z M152.6,155.8c4.7,2.6,10.7,0.8,13.2-3.9c2.6-4.7,0.8-10.7-3.9-13.2
					c-4.7-2.6-10.7-0.8-13.2,3.9C146.2,147.3,147.9,153.2,152.6,155.8z"/>
				<linearGradient id="SVGID_49_" gradientUnits="userSpaceOnUse" x1="156.955" y1="158.9517" x2="157.8143" y2="134.345">
					<stop  offset="0" style="stop-color:#00A651"/>
					<stop  offset="1" style="stop-color:#AFD136"/>
				</linearGradient>
				<path class="st51" d="M163.3,135.8c6,3.2,8.2,10.7,4.9,16.7c-3.2,6-10.7,8.2-16.7,4.9c-6-3.2-8.2-10.7-4.9-16.7
					C149.8,134.8,157.3,132.6,163.3,135.8z M152.1,156.3c5.3,2.9,12,0.9,14.9-4.4c2.9-5.3,0.9-12-4.4-14.9c-5.3-2.9-12-0.9-14.9,4.4
					C144.9,146.7,146.8,153.4,152.1,156.3z"/>
				<linearGradient id="SVGID_50_" gradientUnits="userSpaceOnUse" x1="139.8232" y1="174.8145" x2="167.1592" y2="125.4991">
					<stop  offset="0" style="stop-color:#D2DE26"/>
					<stop  offset="1" style="stop-color:#00A651"/>
				</linearGradient>
				<path class="st52" d="M128.8,136.6c7.5-13.6,24.6-18.6,38.3-11.2c13.6,7.5,18.6,24.6,11.2,38.3c-7.5,13.6-24.6,18.6-38.3,11.2
					C126.3,167.4,121.3,150.2,128.8,136.6z M175.5,162.2c6.6-12.1,2.2-27.4-10-34.1c-12.1-6.7-27.4-2.2-34.1,9.9
					c-6.7,12.1-2.2,27.4,10,34.1C153.6,178.8,168.9,174.4,175.5,162.2z"/>
				<linearGradient id="SVGID_51_" gradientUnits="userSpaceOnUse" x1="122.1254" y1="172.8704" x2="179.2726" y2="126.5935">
					<stop  offset="8.588960e-02" style="stop-color:#00A651"/>
					<stop  offset="1" style="stop-color:#AED136"/>
				</linearGradient>
				<path class="st53" d="M182.9,167.4c-9.7,17.8-32.1,24.3-49.9,14.6c-17.8-9.7-24.3-32.1-14.6-49.9c9.7-17.8,32.1-24.3,49.9-14.6
					C186.1,127.2,192.7,149.6,182.9,167.4z M122,134c-8.7,15.8-2.9,35.8,13,44.4c15.8,8.7,35.8,2.9,44.4-13
					c8.7-15.8,2.9-35.8-13-44.4C150.6,112.3,130.7,118.2,122,134z"/>
				<linearGradient id="SVGID_52_" gradientUnits="userSpaceOnUse" x1="135.7678" y1="183.5299" x2="170.2273" y2="118.7209">
					<stop  offset="0" style="stop-color:#D7DF23"/>
					<stop  offset="1" style="stop-color:#00A651"/>
				</linearGradient>
				<path class="st54" d="M120.8,133.5c9.7-17.7,32.1-24.3,49.8-14.5c17.7,9.7,24.3,32.1,14.5,49.8c-9.7,17.7-32.1,24.3-49.8,14.6
					C117.6,173.6,111.1,151.2,120.8,133.5z M181.7,166.8c8.7-15.8,2.9-35.7-12.9-44.4c-15.8-8.7-35.7-2.8-44.4,13
					c-8.7,15.8-2.8,35.7,13,44.4C153.1,188.4,173,182.6,181.7,166.8z"/>
				<linearGradient id="SVGID_53_" gradientUnits="userSpaceOnUse" x1="119.9849" y1="165.0522" x2="183.9358" y2="137.9066">
					<stop  offset="0" style="stop-color:#C8DA2C"/>
					<stop  offset="1" style="stop-color:#00A850"/>
				</linearGradient>
				<path class="st55" d="M121.5,134.8c9.2-16.8,30.4-23,47.2-13.8c16.8,9.2,23,30.4,13.8,47.2c-9.2,16.8-30.4,23-47.2,13.8
					C118.5,172.8,112.3,151.6,121.5,134.8z M179.1,166.4c8.2-15,2.7-33.8-12.3-42c-15-8.2-33.8-2.7-42,12.3
					c-8.2,15-2.7,33.8,12.3,42C152.1,186.8,170.9,181.3,179.1,166.4z"/>
				<linearGradient id="SVGID_54_" gradientUnits="userSpaceOnUse" x1="123.601" y1="164.2772" x2="182.2964" y2="139.3625">
					<stop  offset="0" style="stop-color:#C8DA2C"/>
					<stop  offset="1" style="stop-color:#00A850"/>
				</linearGradient>
				<path class="st56" d="M125,136.5c8.5-15.4,27.9-21.1,43.3-12.6c15.4,8.5,21.1,27.9,12.6,43.3c-8.5,15.4-27.9,21.1-43.3,12.6
					C122.2,171.3,116.5,151.9,125,136.5z M177.9,165.5c7.5-13.7,2.5-31-11.3-38.6c-13.7-7.5-31-2.5-38.6,11.3
					c-7.5,13.7-2.5,31,11.3,38.6C153,184.3,170.3,179.2,177.9,165.5z"/>
				<linearGradient id="SVGID_55_" gradientUnits="userSpaceOnUse" x1="129.7906" y1="169.9915" x2="178.6578" y2="128.987">
					<stop  offset="0" style="stop-color:#AED136"/>
					<stop  offset="0.9202" style="stop-color:#00A651"/>
				</linearGradient>
				<path class="st57" d="M126.3,134.2c8.5-15.4,27.9-21.1,43.3-12.6c15.4,8.4,21.1,27.9,12.6,43.3c-8.5,15.4-27.9,21.1-43.3,12.6
					C123.5,169,117.8,149.6,126.3,134.2z M179.1,163.1c7.5-13.7,2.5-31-11.3-38.6c-13.7-7.5-31-2.5-38.6,11.3
					c-7.5,13.7-2.5,31,11.3,38.6C154.3,181.9,171.6,176.9,179.1,163.1z"/>
				<g>
					<defs>
						<path id="SVGID_56_" d="M127.4,137.6c7.8-14.2,25.7-19.4,39.9-11.7c14.2,7.8,19.5,25.7,11.7,39.9
							c-7.8,14.2-25.7,19.5-39.9,11.7C124.8,169.7,119.6,151.8,127.4,137.6z M176.1,164.3c6.9-12.7,2.3-28.6-10.4-35.6
							c-12.7-6.9-28.6-2.3-35.5,10.4c-6.9,12.7-2.3,28.6,10.4,35.6C153.2,181.7,169.2,177,176.1,164.3z"/>
					</defs>
					<use xlink:href="#SVGID_56_"  style="overflow:visible;fill:#00A651;"/>
					<clipPath id="SVGID_57_">
						<use xlink:href="#SVGID_56_"  style="overflow:visible;"/>
					</clipPath>
				</g>
				<linearGradient id="SVGID_58_" gradientUnits="userSpaceOnUse" x1="118.4977" y1="151.4972" x2="184.6464" y2="151.4972">
					<stop  offset="0" style="stop-color:#AFD136"/>
					<stop  offset="0.8589" style="stop-color:#00A651"/>
				</linearGradient>
				<path class="st58" d="M122.6,135.6c8.8-16,28.9-21.9,44.9-13.1c16,8.8,21.9,28.9,13.1,44.9c-8.8,16-28.9,21.9-44.9,13.1
					C119.7,171.7,113.8,151.6,122.6,135.6z M177.4,165.7c7.8-14.2,2.6-32.2-11.7-40c-14.2-7.8-32.2-2.6-40,11.7
					c-7.8,14.2-2.6,32.2,11.7,40C151.7,185.1,169.6,179.9,177.4,165.7z"/>
				
					<linearGradient id="SVGID_59_" gradientUnits="userSpaceOnUse" x1="113.7887" y1="130.8426" x2="204.4326" y2="103.13" gradientTransform="matrix(0.9929 -0.1193 0.1193 0.9929 -20.479 52.3829)">
					<stop  offset="0" style="stop-color:#00A850"/>
					<stop  offset="1" style="stop-color:#C8DA2C"/>
				</linearGradient>
				<path class="st59" d="M195.5,167.2c-9.7,24.3-37.4,36.1-61.7,26.3c-24.3-9.7-36.1-37.4-26.3-61.7c9.7-24.3,37.4-36.1,61.7-26.3
					C193.4,115.3,205.2,143,195.5,167.2z M112.3,133.8c-8.7,21.6,1.9,46.2,23.5,54.9c21.6,8.7,46.2-1.8,54.9-23.5
					c8.7-21.6-1.9-46.2-23.5-54.9C145.6,101.7,121,112.2,112.3,133.8z"/>
				<linearGradient id="SVGID_60_" gradientUnits="userSpaceOnUse" x1="109.7831" y1="165.3923" x2="190.4473" y2="132.8019">
					<stop  offset="0" style="stop-color:#00A850"/>
					<stop  offset="1" style="stop-color:#C8DA2C"/>
				</linearGradient>
				<path class="st60" d="M188.3,170c-11.5,21-38,28.8-59.1,17.2c-21-11.5-28.8-38-17.2-59.1c11.5-21,38-28.8,59.1-17.3
					C192.1,122.5,199.8,149,188.3,170z M116.1,130.5c-10.3,18.7-3.4,42.3,15.4,52.6c18.7,10.3,42.3,3.4,52.6-15.4
					c10.3-18.7,3.4-42.3-15.4-52.6C150,104.8,126.4,111.7,116.1,130.5z"/>
				<linearGradient id="SVGID_61_" gradientUnits="userSpaceOnUse" x1="115.0358" y1="180.2512" x2="181.7118" y2="124.3034">
					<stop  offset="0.1411" style="stop-color:#00A651"/>
					<stop  offset="1" style="stop-color:#AED136"/>
				</linearGradient>
				<path class="st61" d="M186.5,173.2c-11.5,21-38,28.8-59.1,17.3c-21-11.5-28.8-38-17.2-59.1c11.5-21,38-28.8,59.1-17.3
					C190.3,125.6,198.1,152.1,186.5,173.2z M114.4,133.7c-10.3,18.7-3.4,42.3,15.4,52.6c18.7,10.3,42.3,3.4,52.6-15.4
					c10.3-18.7,3.4-42.3-15.4-52.6C148.3,108,124.7,114.9,114.4,133.7z"/>
				
					<linearGradient id="SVGID_62_" gradientUnits="userSpaceOnUse" x1="118.7711" y1="223.0518" x2="175.9142" y2="165.6469" gradientTransform="matrix(0.9873 0.1587 -0.1587 0.9873 36.7691 -64.7801)">
					<stop  offset="4.294480e-02" style="stop-color:#00A651"/>
					<stop  offset="1" style="stop-color:#AED136"/>
				</linearGradient>
				<path class="st62" d="M183.4,175.3c-13.7,17.6-39.2,20.8-56.8,7.1c-17.6-13.7-20.8-39.2-7.1-56.8c13.7-17.6,39.2-20.8,56.8-7.1
					C193.9,132.2,197.1,157.7,183.4,175.3z M122.9,128.4c-12.2,15.7-9.4,38.4,6.3,50.6c15.7,12.2,38.4,9.4,50.6-6.3
					c12.2-15.7,9.4-38.4-6.3-50.6C157.8,109.8,135.1,112.7,122.9,128.4z"/>
				<linearGradient id="SVGID_63_" gradientUnits="userSpaceOnUse" x1="106.9006" y1="151.1102" x2="197.0879" y2="147.9608">
					<stop  offset="0.1534" style="stop-color:#00A651"/>
					<stop  offset="1" style="stop-color:#AFD136"/>
				</linearGradient>
				<path class="st63" d="M191.6,171.2c-12,21.8-39.4,29.8-61.3,17.9c-21.8-12-29.8-39.4-17.9-61.3c12-21.8,39.4-29.9,61.3-17.9
					C195.5,121.9,203.5,149.4,191.6,171.2z M116.8,130.2c-10.7,19.4-3.5,43.9,15.9,54.6c19.4,10.7,43.9,3.5,54.6-15.9
					c10.6-19.4,3.5-43.9-15.9-54.6C151.9,103.6,127.4,110.8,116.8,130.2z"/>
				<path class="st64" d="M158.5,130.6c7.7,0.2,13.8,6.7,13.6,14.4c-0.2,7.7-6.7,13.8-14.4,13.6c-7.7-0.2-13.8-6.7-13.6-14.4
					C144.3,136.5,150.7,130.4,158.5,130.6z M157.7,157.1c6.9,0.2,12.6-5.2,12.8-12.1c0.2-6.9-5.2-12.6-12.1-12.8
					c-6.9-0.2-12.6,5.2-12.8,12.1C145.4,151.1,150.8,156.9,157.7,157.1z"/>
			</g>
		</g>
	</g>
</g>
</svg>
