<svg xmlns="http://www.w3.org/2000/svg" viewBox="1842.099 -1015 199.901 34">
  <defs>
    <style>
      .cls-1 {
        fill: #007734;
        font-size: 25px;
        font-family: OpenSans-Light, Open Sans;
        font-weight: 300;
      }

      .cls-2 {
        fill: #7ab51d;
      }
    </style>
  </defs>
  <g id="Group_96" data-name="Group 96" transform="translate(2136 -1449)">
    <text id="ShoppingApp" class="cls-1" transform="translate(-246 461)"><tspan x="0" y="0">Shopping</tspan><tspan class="cls-2" y="0">App</tspan></text>
    <path id="price-tag" class="cls-2" d="M31.315,6.155,25.145,0H17.371L14.308,3.054A23.156,23.156,0,0,0,.462,6.765a.555.555,0,1,0,.645.9A22.139,22.139,0,0,1,13.253,4.1L3.33,14l0,0L0,17.326,13.958,31.315l5.573-5.558a8.235,8.235,0,0,0,3.793.894,7.211,7.211,0,0,0,5.052-1.834,8.494,8.494,0,0,0,1.911-9.788L31.314,14V6.155ZM24.686,1.11,30.2,6.616v6.927L19.359,24.353c-2.267-1.625-2.957-4.675-1.939-8.674a.555.555,0,0,0-1.076-.274c-1.437,5.644.494,8.427,2.22,9.74l-1.273,1.269L4.9,14l9.814-9.788A16.99,16.99,0,0,1,21.96,6.8a2.157,2.157,0,0,0-.038.376,2.213,2.213,0,1,0,.512-1.387,18.08,18.08,0,0,0-6.727-2.566L17.83,1.11ZM23.21,7.66a.555.555,0,1,0,.666-.888c-.172-.128-.344-.241-.515-.362a1.073,1.073,0,1,1-.245,1.183C23.148,7.617,23.179,7.636,23.21,7.66ZM1.57,17.328l2.549-2.542L16.509,27.2,13.96,29.745Zm26.022,6.7c-1.43,1.429-4.646,2.08-7.233.9l9.09-9.066A7.293,7.293,0,0,1,27.592,24.031Z" transform="translate(-293.901 435)"/>
  </g>
</svg>
